<?xml version="1.0" encoding="UTF-8" standalone="no"?><!DOCTYPE svg PUBLIC "-//W3C//DTD SVG 1.1//EN" "http://www.w3.org/Graphics/SVG/1.1/DTD/svg11.dtd"><svg width="100%" height="100%" viewBox="0 0 842 596" version="1.1" xmlns="http://www.w3.org/2000/svg" xmlns:xlink="http://www.w3.org/1999/xlink" xml:space="preserve" xmlns:serif="http://www.serif.com/" style="fill-rule:evenodd;clip-rule:evenodd;stroke-linecap:round;stroke-linejoin:round;stroke-miterlimit:1.5;"><path d="M168.644,387.787c-9.416,-4.708 -13.208,-19.784 -13.394,-36.216c-0.336,-29.669 7.126,-58.991 12.402,-101.197c1.692,-13.535 15.735,-49.403 18.85,-50.102c26.464,-5.94 20.138,23.297 16.37,56.551c-0.279,2.465 0.332,6.514 0.28,7.448c10.553,-14.956 24.999,-12.389 30.972,-18.362c0.133,-3.186 1.709,-33.825 11.953,-44.07c5.077,-5.077 27.374,-2 22.969,24.425c-0.718,4.309 -5.568,72.761 2.282,91.077c1.459,3.405 -1.391,8.555 16.37,30.756c2.465,3.082 8.201,24.137 4.266,32.007c-3.865,7.729 -37.013,13.671 -43.257,4.305c-15.918,-23.877 -6.485,-92.042 -13.096,-105.265c-1.21,-2.419 -2.307,-1.575 -31.252,12.898c-20.699,10.35 2.205,88.738 -11.806,95.743" style="stroke:#000;stroke-width:0.24px;"/><path d="M359.981,229.334c4.667,-23.333 -35.866,-22.427 -41.077,-21.124c-10.316,2.579 -31.568,18.131 -35.717,34.724c-8.9,35.6 4.543,64.724 7.441,73.417c5.033,15.1 22.831,35.878 57.543,24.307c1.488,-0.496 6.843,-1.835 7.441,-1.984c13.412,-3.353 34.48,-28.213 12.402,-33.732c-18.578,-4.645 -58.321,10.98 -45.638,-14.386c4.04,-8.08 53.482,-16.812 34.228,-31.252c-6.876,-5.157 -39.722,2.113 -40.181,-2.48c-2.047,-20.47 42.049,-19.949 43.557,-27.49Z" style="stroke:#000;stroke-width:0.24px;"/><path d="M385.92,200.219c-1.769,31.836 10.749,120.761 -1.488,132.998c-10.517,10.517 -9.758,12.237 -24.307,15.874c-28.282,7.07 -28.644,14.677 -28.772,17.362c-1.034,21.713 10.431,22.937 32.723,21.334c2.018,-0.145 38.599,-6.698 42.851,-21.257c11.148,-38.169 8.954,-48.652 17.08,-49.667c3.349,-0.419 13.373,-0.41 19.953,19.33c15.402,46.206 42.403,51.594 51.044,51.594c6.86,-0 22.266,-8.034 24.393,-14.416c0.677,-2.031 5.554,-20.199 -5.121,-29.348c-2.173,-1.862 -47.285,-9.865 -52.09,-24.277c-0.652,-1.957 -2.207,-0.727 -12.898,-22.108c-9.996,-19.991 -8.066,-20.673 -12.274,-25.933c-10.905,-13.631 7.409,-11.54 23.811,-19.346c5.067,-2.412 8.797,-25.631 6.708,-33.134c-4.289,-15.411 -24.977,-18.891 -28.039,-19.006c-29.021,-1.089 -53.575,0 -53.575,0Z" style="stroke:#000;stroke-width:0.24px;"/><path d="M479.982,203.73c0.057,1.145 3.488,27.833 1.678,38.693c-3.797,22.784 -7.475,27.153 -10.776,43.654c-0.346,1.73 3.337,30.225 10.776,30.756c15.407,1.101 25.37,-25.237 22.261,-35.284c-2.048,-6.618 -6.497,-21.281 1.55,-20.275c57.526,7.191 63.339,-62.934 15.378,-61.016c-5.688,0.228 -7.427,-0.385 -21.105,0.716c-8.722,0.702 -6.969,0.802 -11.499,1.182c-5.23,0.438 -8.263,1.575 -8.263,1.575Z" style="stroke:#000;stroke-width:0.24px;"/><path d="M568.042,236.461c-0.169,2.605 -0.448,3.922 -0.763,4.526c-0.722,1.386 4.727,6.232 -7.108,17.556c-19.024,18.201 -6.015,6.994 -24.662,25.641c-1.18,1.18 -10.207,16.761 -10.565,23.811c-0.026,0.517 0.881,19.149 4.131,24.23c8.54,13.351 10.403,11.119 11.825,21.331c2.596,18.642 -5.85,31.999 0.351,34.232c6.201,2.232 37.316,-0.132 37.701,-10.144c1.646,-42.792 -28.488,-60.391 -13.777,-80.005c35.261,-47.015 31.66,-44.356 30.924,-57.614c-0.264,-4.744 -26.899,-21.395 -28.055,-3.563Z" style="stroke:#000;stroke-width:0.24px;"/><path d="M612.145,323.32c-2.997,17.981 8.03,47.729 1.397,64.467c-21.754,4.351 -22.134,-37.985 -25.605,-55.339c-1.379,-6.894 -12.971,-48.92 -2.234,-52.499c8.335,-2.778 27.845,-5.538 31.53,7.17c0.64,2.206 8.111,17.566 9.595,23.502c2.208,8.834 2.067,9.367 7.937,12.302c2.397,1.199 1.354,-22.842 -1.191,-31.748c-2.999,-10.495 -5.575,-72.892 0.917,-85.876c2.059,-4.118 13.97,-7.337 32.454,-5.679c16.332,1.465 5.404,35.168 0.309,46.632c-3.871,8.709 6.51,47.066 2.897,79.582c-1.409,12.678 -5.622,60.286 -22.299,61.954c-10.444,1.044 -17.246,-33.497 -23.405,-45.815c-1.67,-3.34 -1.863,-8.609 -11.906,-18.652" style="stroke:#000;stroke-width:0.24px;"/><path d="M571.951,205.561c-0.617,3.703 -2.241,11.801 4,16.705c2.375,1.866 10.344,5.271 16.368,3.052c0.371,-0.137 0.724,-0.276 1.059,-0.418c6.091,-2.574 6.381,-5.921 6.709,-9.2c0.075,-0.75 0.225,-7.265 -3.237,-10.727c-1.263,-1.263 -0.982,-1.573 -3.791,-3.329c-1.929,-1.206 -9.814,-3.082 -13.685,-1.146c-0.646,0.323 -4.418,1.527 -6.285,3.333"/><path d="M444.474,212.854c-9.953,3.318 -12.083,28.82 -5.644,31.395c17.299,6.92 20.887,-14.871 18.696,-23.635c-2.649,-10.595 -15.785,-6.291 -16.227,-5.997" style="fill:#fff;stroke:#000;stroke-width:0.24px;"/><path d="M527.371,212.854c-9.953,3.318 -12.083,28.82 -5.644,31.395c17.299,6.92 20.887,-14.871 18.696,-23.635c-2.649,-10.595 -15.785,-6.291 -16.227,-5.997" style="fill:#fff;stroke:#000;stroke-width:0.24px;"/><g transform="matrix(35.455891,0,0,35.455891,666.714605,443.097089)"></g><text x="160.582px" y="443.097px" style="font-family:'HelveticaBlackOriginal-Bold', 'Helvetica Black Original';font-weight:700;font-size:35.456px;">c r e a t i v e  s t u d i o</text><path d="M161.645,408.089l504.076,0" style="fill:none;stroke:#000;stroke-width:3.1px;"/></svg>